<?xml version="1.0" encoding="utf-8"?>
<!-- Generator: Adobe Illustrator 18.1.1, SVG Export Plug-In . SVG Version: 6.00 Build 0)  -->
<svg version="1.1" id="Слой_1" xmlns="http://www.w3.org/2000/svg" xmlns:xlink="http://www.w3.org/1999/xlink" x="0px" y="0px"
	 width="18px" height="18px" viewBox="0 0 18 18" enable-background="new 0 0 18 18" xml:space="preserve">
<polygon fill="#616264" points="14,6.03 14,2 13,2 13,6.03 11.11,6.03 13.52,8.77 15.93,6.03 "/>
<polygon fill="#066397" points="15.75,11.2 15.95,10.96 15.95,10 10,10 10,11.2 14.02,11.2 10.19,15.82 10.19,15.82 10,16.05 
	10,16.98 15.95,16.98 15.95,15.82 11.9,15.82 15.75,11.2 "/>
<path fill="#E80B3E" d="M8.08,10.98L9,11L8.98,9.98L6.99,3.97L5.98,3.01L5.02,4.03L3,10l0.02,0.98l0.89,0.01l0.62-2.05h2.94
	L8.08,10.98z M4.8,8.02l0.99-3.26h0.43l0.97,3.26H4.8z"/>
</svg>
