<?xml version="1.0" encoding="utf-8"?>
<!-- Generator: Adobe Illustrator 18.1.1, SVG Export Plug-In . SVG Version: 6.00 Build 0)  -->
<svg version="1.1" id="Слой_1" xmlns="http://www.w3.org/2000/svg" xmlns:xlink="http://www.w3.org/1999/xlink" x="0px" y="0px"
	 viewBox="0 0 30.99 31" enable-background="new 0 0 30.99 31" xml:space="preserve">
<g>
	<path fill-rule="evenodd" clip-rule="evenodd" fill="#4B4B4B" d="M15.49,0c8.57,0.01,15.49,6.95,15.5,15.51
		c0,8.54-6.93,15.49-15.49,15.49C6.93,30.99,0.01,24.05,0,15.49C0,6.95,6.95,0,15.49,0L15.49,0z M20.97,26.49L20.97,26.49
		c-1.64,0.82-3.5,1.28-5.47,1.3c-1.96-0.01-3.83-0.47-5.48-1.3c-0.33-0.16-0.54-0.42-0.61-0.77c-0.08-0.37,0.01-0.7,0.25-0.97
		c1.39-1.68,3.5-2.73,5.85-2.73c2.35,0.01,4.44,1.06,5.84,2.73c0.21,0.29,0.3,0.61,0.24,0.96C21.51,26.06,21.3,26.34,20.97,26.49
		L20.97,26.49z M15.49,3.21L15.49,3.21c5.83,0.01,10.69,4.04,11.96,9.46c0.1,0.4-0.01,0.78-0.31,1.07c-1.37,1.27-21.44,1.9-23.27,0
		c-0.3-0.28-0.42-0.66-0.33-1.07C4.82,7.25,9.69,3.21,15.49,3.21L15.49,3.21z M26,17.41L26,17.41c-1.84,0.39-3.24,1.42-3.59,2.91
		c-0.24,1,0.04,2.05,0.73,3.01c0.2,0.29,0.51,0.45,0.86,0.47c0.37,0,0.68-0.13,0.91-0.41c1.1-1.31,1.93-2.84,2.42-4.55
		c0.12-0.4,0.01-0.78-0.27-1.07C26.79,17.47,26.41,17.34,26,17.41L26,17.41z M4.99,17.43L4.99,17.43c1.84,0.39,3.24,1.41,3.6,2.9
		c0.24,1-0.04,2.06-0.73,3.01c-0.21,0.28-0.51,0.44-0.87,0.46c-0.35,0.01-0.67-0.13-0.9-0.39c-1.11-1.31-1.93-2.87-2.41-4.56
		c-0.11-0.4-0.03-0.79,0.26-1.1C4.21,17.47,4.58,17.35,4.99,17.43L4.99,17.43z"/>
	<path fill-rule="evenodd" clip-rule="evenodd" fill="#8EC63F" d="M4.84,26.74C1.86,23.92,0,19.92,0,15.49
		c0-4.12,1.61-7.87,4.24-10.65c0.3,0.23,0.56,0.47,0.79,0.74L5.05,5.6v0.01l0.01,0.01l0.01,0.01l0.01,0.01l0.01,0.01l0,0L5.1,5.66
		v0.01l0.01,0.01l0.01,0.01l0.01,0.01L5.14,5.7l0.01,0.01l0.01,0.01l0.01,0.01l0.01,0.01h0.01l0.01,0.02l0,0L5.2,5.78l0,0L5.21,5.8
		l0.01,0.01v0.01l0.01,0.01l0.01,0.01l0.01,0.01l0.01,0.01l0.01,0.01v0.01l0.01,0.01L5.29,5.9v0.01L5.3,5.92l0.01,0.01l0.01,0.01
		l0.01,0.01l0.01,0.01v0.01l0.01,0.01l0.01,0.01L5.36,6l0.01,0.01l0.01,0.01v0.01l0.01,0.01L5.4,6.06l0.01,0.01l0.01,0.01
		c-2.3,2.47-3.72,5.78-3.72,9.42c0,3.85,1.58,7.33,4.12,9.83l-0.01,0.01L5.8,25.36l-0.01,0.01v0.01l-0.01,0.01L5.78,25.4l0,0
		l-0.01,0.02l0,0l-0.01,0.01l-0.01,0.01l0,0l-0.01,0.02l-0.01,0.01v0.01l-0.01,0.01l-0.01,0.01v0.01l-0.01,0.01l0,0L5.7,25.56
		l-0.01,0.01v0.01l-0.01,0.01H5.68l-0.01,0.02l0,0l-0.01,0.01l-0.01,0.01v0.01l-0.01,0.01l-0.01,0.01l-0.01,0.01l0,0L5.63,25.7
		L5.62,25.7l-0.01,0.01l-0.01,0.01v0.01L5.6,25.75H5.59l-0.01,0.02v0.01l-0.01,0.01L5.57,25.8l0,0l-0.01,0.01v0.01l-0.01,0.01
		l-0.01,0.01l-0.01,0.01l-0.01,0.01l0,0l-0.01,0.02C5.32,26.19,5.1,26.48,4.84,26.74L4.84,26.74z"/>
	<path fill-rule="evenodd" clip-rule="evenodd" fill="#8EC63F" d="M25.95,5.58L25.94,5.6v0.01l-0.01,0.01l-0.01,0.01v0.01L25.9,5.64
		l0,0l-0.01,0.01l-0.02,0.02l-0.01,0.01l0,0L25.85,5.7l0,0l-0.01,0.01v0.01l-0.01,0.01l-0.01,0.01h-0.01L25.8,5.77l0,0l-0.01,0.01
		h-0.01L25.78,5.8l-0.01,0.01l-0.01,0.01l-0.01,0.01l-0.01,0.01v0.01l-0.01,0.01l-0.01,0.01h-0.01l-0.01,0.01L25.69,5.9v0.01
		l-0.01,0.01l-0.01,0.01l-0.01,0.01l-0.01,0.01l-0.01,0.01l-0.01,0.01l-0.01,0.01l-0.01,0.01V6l-0.01,0.01l-0.01,0.01L25.6,6.04
		l-0.01,0.01l-0.01,0.01v0.01l-0.01,0.01l0.11,0.12l0.1,0.11l0.11,0.12l0.1,0.13l0.1,0.12l0.1,0.13l0.1,0.12l0.1,0.13l0.1,0.13
		l0.09,0.13l0.1,0.13l0.1,0.13l0.09,0.13l0.09,0.13l0.09,0.13l0.08,0.13l0.09,0.13l0.08,0.14l0.08,0.13l0,0l0.08,0.14l0.08,0.13
		l0.07,0.14l0.07,0.14l0.07,0.14l0.07,0.14l0,0l0.07,0.15l0.07,0.14l0.07,0.15l0.07,0.15l0,0l0.07,0.14l0,0l0.06,0.15l0.07,0.16l0,0
		l0.06,0.15l0,0l0.06,0.15l0.05,0.15l0.05,0.16l0.05,0.16l0.05,0.15l0.05,0.16l0.04,0.16l0.04,0.16h0.01l0.04,0.16l0.04,0.16l0,0
		l0.04,0.16l0.04,0.16l0.04,0.16L29,12.68l0.04,0.16l0,0L29.07,13l0,0l0.03,0.16l0.02,0.16l0,0l0.03,0.17l0.02,0.16l0.02,0.16
		l0.01,0.17h0.01l0.01,0.16l0,0l0.01,0.16l0.01,0.17l0.01,0.17l0.01,0.16l0.01,0.17v0.17l0.01,0.17v0.17v0.19l-0.01,0.18v0.18h-0.01
		l-0.01,0.18l-0.01,0.18l-0.01,0.18l0,0l-0.01,0.18l0,0l-0.01,0.18L29.2,17.1l-0.01,0.18l-0.03,0.17l-0.02,0.18l0,0l-0.03,0.17
		l-0.03,0.17l-0.03,0.17l-0.04,0.17l-0.04,0.17l-0.04,0.17l-0.04,0.17h-0.01l-0.04,0.16l-0.04,0.17l0,0l-0.04,0.16l-0.05,0.16
		l-0.05,0.16l-0.05,0.16l-0.05,0.16l-0.06,0.16l0,0l-0.06,0.16l0,0l-0.06,0.16l-0.06,0.16l-0.07,0.16l-0.07,0.16l-0.07,0.16l0,0
		l-0.07,0.16l-0.07,0.16l-0.07,0.15l-0.07,0.16l-0.07,0.15l-0.08,0.15l-0.08,0.15l-0.08,0.15l-0.08,0.15l-0.09,0.14l-0.09,0.15
		l-0.09,0.14L27.08,23l-0.09,0.14l-0.1,0.14l-0.1,0.13l0,0l-0.1,0.14l-0.1,0.13l-0.1,0.13l-0.1,0.13l-0.1,0.13l0,0l-0.1,0.13
		l-0.1,0.13l-0.11,0.13l-0.11,0.13l-0.11,0.13l-0.11,0.13l-0.12,0.12l-0.11,0.13l-0.12,0.12l-0.12,0.12l0.01,0.01l0.01,0.01v0.01
		l0.01,0.01v0.01l0.01,0.01l0.01,0.02l0,0l0.01,0.01l0.01,0.01l0,0l0.01,0.02l0.01,0.01l0.01,0.01v0.01l0.01,0.01l0.01,0.01
		l0.01,0.01l0,0l0.01,0.02v0.01l0.01,0.01l0.01,0.01l0,0l0.01,0.02l0,0l0.01,0.01v0.01l0.01,0.01l0.01,0.01v0.01l0.01,0.01l0,0
		l0.01,0.01l0.01,0.01v0.01l0.01,0.01l0.01,0.01l0.01,0.01l0,0l0.01,0.02l0.01,0.01l0.01,0.01l0.01,0.01l0,0l0.01,0.01l0.01,0.01
		l0.01,0.01v0.01l0.01,0.01l0.01,0.01h0.01l0.01,0.02c0.19,0.3,0.41,0.59,0.67,0.85c2.98-2.82,4.84-6.82,4.84-11.25
		c0-4.12-1.62-7.87-4.25-10.65C26.45,5.07,26.18,5.32,25.95,5.58L25.95,5.58z"/>
	<path fill-rule="evenodd" clip-rule="evenodd" fill="#7DB332" d="M15.49,24.83c5.15,0,9.34-4.19,9.34-9.34
		c0-5.14-4.19-9.33-9.34-9.33c-5.14,0-9.34,4.19-9.34,9.33C6.15,20.64,10.35,24.83,15.49,24.83L15.49,24.83z"/>
	<rect x="9.08" y="13.17" fill-rule="evenodd" clip-rule="evenodd" fill="#FFFFFF" width="3" height="1"/>
	<rect x="9.08" y="13.17" fill-rule="evenodd" clip-rule="evenodd" fill="#FFFFFF" width="1" height="5"/>
	<rect x="9.08" y="17.17" fill-rule="evenodd" clip-rule="evenodd" fill="#FFFFFF" width="3" height="1"/>
	<rect x="9.08" y="15.17" fill-rule="evenodd" clip-rule="evenodd" fill="#FFFFFF" width="3" height="1"/>
	<rect x="14.08" y="13.17" fill-rule="evenodd" clip-rule="evenodd" fill="#FFFFFF" width="2" height="1"/>
	<rect x="20.08" y="14.17" fill-rule="evenodd" clip-rule="evenodd" fill="#FFFFFF" width="1" height="3"/>
	<rect x="14.08" y="17.17" fill-rule="evenodd" clip-rule="evenodd" fill="#FFFFFF" width="2" height="1"/>
	<rect x="18.08" y="13.17" fill-rule="evenodd" clip-rule="evenodd" fill="#FFFFFF" width="2" height="1"/>
	<rect x="18.08" y="17.17" fill-rule="evenodd" clip-rule="evenodd" fill="#FFFFFF" width="2" height="1"/>
	<rect x="13.08" y="14.17" fill-rule="evenodd" clip-rule="evenodd" fill="#FFFFFF" width="1" height="3"/>
	<rect x="17.08" y="14.17" fill-rule="evenodd" clip-rule="evenodd" fill="#FFFFFF" width="1" height="3"/>
</g>
<g>
</g>
<g>
</g>
<g>
</g>
<g>
</g>
<g>
</g>
<g>
</g>
<g>
</g>
<g>
</g>
<g>
</g>
<g>
</g>
<g>
</g>
<g>
</g>
<g>
</g>
<g>
</g>
<g>
</g>
</svg>
