<?xml version="1.0" encoding="utf-8"?>
<!-- Generator: Adobe Illustrator 18.1.1, SVG Export Plug-In . SVG Version: 6.00 Build 0)  -->
<svg version="1.1" id="Слой_1" xmlns="http://www.w3.org/2000/svg" xmlns:xlink="http://www.w3.org/1999/xlink" x="0px" y="0px"
	 width="18px" height="18px" viewBox="0 0 18 18" enable-background="new 0 0 18 18" xml:space="preserve">
<g>
	<path fill="#EE2026" d="M9.42,13.42H2.46c-0.58,0-1.04-0.47-1.04-1.04V1.58c0-0.58,0.47-1.04,1.04-1.04h6.96
		c0.58,0,1.04,0.47,1.04,1.04v10.79C10.46,12.95,9.99,13.42,9.42,13.42z"/>
	<path fill="#5A606D" d="M9.42,13.82H2.46c-0.79,0-1.44-0.65-1.44-1.44V1.58c0-0.79,0.65-1.44,1.44-1.44h6.96
		c0.79,0,1.44,0.65,1.44,1.44v10.79C10.86,13.17,10.21,13.82,9.42,13.82z M2.46,0.94c-0.35,0-0.64,0.29-0.64,0.64v10.79
		c0,0.35,0.29,0.64,0.64,0.64h6.96c0.35,0,0.64-0.29,0.64-0.64V1.58c0-0.35-0.29-0.64-0.64-0.64H2.46z"/>
</g>
<g>
	<path fill="#FBD001" d="M15.5,17.5H8.54c-0.58,0-1.04-0.47-1.04-1.04V5.63c0-0.58,0.47-1.04,1.04-1.04h6.96
		c0.58,0,1.04,0.47,1.04,1.04v10.83C16.54,17.03,16.08,17.5,15.5,17.5z"/>
	<path fill="#5A606D" d="M15.5,17.9H8.54c-0.79,0-1.44-0.65-1.44-1.44V5.63c0-0.79,0.65-1.44,1.44-1.44h6.96
		c0.79,0,1.44,0.65,1.44,1.44v10.83C16.94,17.25,16.29,17.9,15.5,17.9z M8.54,4.98c-0.35,0-0.64,0.29-0.64,0.64v10.83
		c0,0.35,0.29,0.64,0.64,0.64h6.96c0.35,0,0.64-0.29,0.64-0.64V5.63c0-0.35-0.29-0.64-0.64-0.64H8.54z"/>
</g>
</svg>
