<?xml version="1.0" encoding="utf-8"?>
<!-- Generator: Adobe Illustrator 18.1.1, SVG Export Plug-In . SVG Version: 6.00 Build 0)  -->
<svg version="1.1" id="Слой_1" xmlns="http://www.w3.org/2000/svg" xmlns:xlink="http://www.w3.org/1999/xlink" x="0px" y="0px"
	 width="18px" height="18px" viewBox="0 0 18 18" enable-background="new 0 0 18 18" xml:space="preserve">
<polygon fill="#FBD001" points="8.72,1.61 11.34,6.8 17.09,7.69 12.96,11.79 13.89,17.54 8.72,14.87 3.54,17.54 4.47,11.79 
	0.34,7.69 6.09,6.8 "/>
<path fill="#5A606D" d="M13.63,17.6l-4.92-2.53L3.79,17.6c-0.21,0.11-0.46-0.07-0.42-0.31l0.89-5.46l-3.93-3.9
	c-0.17-0.17-0.08-0.46,0.16-0.5l5.47-0.84l2.49-4.94c0.11-0.21,0.42-0.21,0.52,0l2.49,4.94l5.47,0.84c0.24,0.04,0.33,0.33,0.16,0.5
	l-3.93,3.9l0.89,5.46C14.1,17.53,13.85,17.71,13.63,17.6z M1.42,8.01l3.6,3.57L4.2,16.58l4.51-2.32l4.51,2.32l-0.81-5.01l3.6-3.57
	L11,7.23L8.72,2.7L6.43,7.23L1.42,8.01z"/>
</svg>
